<svg preserveAspectRatio="none" overflow="visible" style="display: block;" width="36.289" height="36.289" viewBox="0 0 36.289 36.289" fill="none" xmlns="http://www.w3.org/2000/svg">
<g id="Link - Find us on Pinterest &#226;&#134;&#146; snippets/social-icon.liquid">
<path id="Vector" d="M18.0683 1.47152C20.3702 1.47152 22.5687 1.9215 24.6638 2.82147C26.7589 3.72144 28.5661 4.93107 30.0854 6.45037C31.6047 7.96967 32.8143 9.77686 33.7143 11.8719C34.6143 13.967 35.0642 16.1655 35.0642 18.4675C35.0642 21.5363 34.3046 24.3765 32.7853 26.9881C31.266 29.5997 29.2006 31.6652 26.589 33.1845C23.9774 34.7038 21.1371 35.4634 18.0683 35.4634C16.3869 35.4634 14.7787 35.2421 13.2437 34.7993C14.0989 33.4119 14.6741 32.1871 14.9692 31.1251L16.1649 26.4783C16.4601 27.0383 17.0062 27.5325 17.8034 27.9607C18.6005 28.3889 19.4412 28.603 20.3255 28.603C22.0964 28.603 23.6822 28.0937 25.083 27.0752C26.4837 26.0567 27.5681 24.6626 28.3363 22.8929C29.1044 21.1232 29.4878 19.1316 29.4866 16.9179C29.4866 14.2918 28.476 12.0123 26.4547 10.0793C24.4334 8.14628 21.8587 7.17978 18.7306 7.17978C16.8121 7.17978 15.0563 7.50457 13.4632 8.15414C11.8701 8.80371 10.5867 9.65227 9.61296 10.6998C8.6392 11.7474 7.89407 12.8832 7.37755 14.1073C6.86104 15.3315 6.60278 16.5635 6.60278 17.8034C6.60278 19.3372 6.89068 20.6799 7.46646 21.8315C8.04225 22.983 8.90532 23.7947 10.0557 24.2665C10.2625 24.3548 10.4397 24.362 10.5873 24.2882C10.7349 24.2144 10.8383 24.0741 10.8976 23.8673C11.1044 23.1294 11.2224 22.6722 11.2514 22.4956C11.3699 22.1714 11.2962 21.8617 11.03 21.5666C10.2631 20.7113 9.87968 19.6045 9.87968 18.2461C9.87968 16.0034 10.6545 14.0783 12.204 12.4707C13.7535 10.8631 15.7821 10.0593 18.2897 10.0593C20.5033 10.0593 22.2294 10.6641 23.4681 11.8738C24.7068 13.0834 25.3267 14.662 25.3279 16.6095C25.3279 18.2328 25.1065 19.7303 24.6638 21.1021C24.2211 22.4738 23.5866 23.5727 22.7605 24.3989C21.9343 25.2251 20.9902 25.6382 19.9281 25.6382C19.0427 25.6382 18.3199 25.3134 17.7598 24.6638C17.1998 24.0142 17.0226 23.2467 17.2282 22.3613C17.3467 21.9476 17.5016 21.4166 17.6927 20.7682C17.8838 20.1198 18.0459 19.5664 18.179 19.108C18.312 18.6495 18.4372 18.1554 18.5546 17.6256C18.6719 17.0957 18.7312 16.653 18.7324 16.2974C18.7324 15.5595 18.5407 14.9547 18.1572 14.4829C17.7737 14.0112 17.2131 13.7753 16.4752 13.7753C15.5607 13.7753 14.7932 14.1957 14.1727 15.0363C13.5521 15.877 13.2425 16.9318 13.2437 18.2007C13.2437 18.6725 13.2806 19.1297 13.3544 19.5725C13.4281 20.0152 13.5092 20.34 13.5975 20.5468L13.7299 20.8571C12.5203 26.1093 11.7824 29.1927 11.5163 30.1072C11.2804 31.2285 11.1921 32.5416 11.2514 34.0463C8.2116 32.6891 5.75483 30.6086 3.88111 27.8046C2.00739 25.0007 1.07053 21.8877 1.07053 18.4657C1.07053 13.7735 2.73014 9.76779 6.04938 6.44856C9.36861 3.12932 13.3743 1.4697 18.0665 1.4697L18.0683 1.47152Z" fill="white"/>
</g>
</svg>
